<svg id="visual" viewBox="0 0 900 600" width="900" height="600" xmlns="http://www.w3.org/2000/svg" xmlns:xlink="http://www.w3.org/1999/xlink" version="1.1"><rect x="0" y="0" width="900" height="600" fill="#F3dfbf"></rect><path d="M0 455L21.5 444.3C43 433.7 86 412.3 128.8 393C171.7 373.7 214.3 356.3 257.2 360.8C300 365.3 343 391.7 385.8 393.8C428.7 396 471.3 374 514.2 369.2C557 364.3 600 376.7 642.8 381.3C685.7 386 728.3 383 771.2 384C814 385 857 390 878.5 392.5L900 395L900 601L878.5 601C857 601 814 601 771.2 601C728.3 601 685.7 601 642.8 601C600 601 557 601 514.2 601C471.3 601 428.7 601 385.8 601C343 601 300 601 257.2 601C214.3 601 171.7 601 128.8 601C86 601 43 601 21.5 601L0 601Z" fill="#eb8a90"></path><path d="M0 418L21.5 415.3C43 412.7 86 407.3 128.8 414.8C171.7 422.3 214.3 442.7 257.2 454.3C300 466 343 469 385.8 467.5C428.7 466 471.3 460 514.2 456.5C557 453 600 452 642.8 455.2C685.7 458.3 728.3 465.7 771.2 463.8C814 462 857 451 878.5 445.5L900 440L900 601L878.5 601C857 601 814 601 771.2 601C728.3 601 685.7 601 642.8 601C600 601 557 601 514.2 601C471.3 601 428.7 601 385.8 601C343 601 300 601 257.2 601C214.3 601 171.7 601 128.8 601C86 601 43 601 21.5 601L0 601Z" fill="#e37483"></path><path d="M0 456L21.5 457.3C43 458.7 86 461.3 128.8 465.8C171.7 470.3 214.3 476.7 257.2 472C300 467.3 343 451.7 385.8 451C428.7 450.3 471.3 464.7 514.2 463.8C557 463 600 447 642.8 449.3C685.7 451.7 728.3 472.3 771.2 472.5C814 472.7 857 452.3 878.5 442.2L900 432L900 601L878.5 601C857 601 814 601 771.2 601C728.3 601 685.7 601 642.8 601C600 601 557 601 514.2 601C471.3 601 428.7 601 385.8 601C343 601 300 601 257.2 601C214.3 601 171.7 601 128.8 601C86 601 43 601 21.5 601L0 601Z" fill="#da5d78"></path><path d="M0 548L21.5 546.2C43 544.3 86 540.7 128.8 540C171.7 539.3 214.3 541.7 257.2 532.2C300 522.7 343 501.3 385.8 501.7C428.7 502 471.3 524 514.2 534.2C557 544.3 600 542.7 642.8 531.7C685.7 520.7 728.3 500.3 771.2 490.3C814 480.3 857 480.7 878.5 480.8L900 481L900 601L878.5 601C857 601 814 601 771.2 601C728.3 601 685.7 601 642.8 601C600 601 557 601 514.2 601C471.3 601 428.7 601 385.8 601C343 601 300 601 257.2 601C214.3 601 171.7 601 128.8 601C86 601 43 601 21.5 601L0 601Z" fill="#d1446f"></path><path d="M0 548L21.5 548.7C43 549.3 86 550.7 128.8 551.3C171.7 552 214.3 552 257.2 548.3C300 544.7 343 537.3 385.8 536C428.7 534.7 471.3 539.3 514.2 541.5C557 543.7 600 543.3 642.8 547C685.7 550.7 728.3 558.3 771.2 561.7C814 565 857 564 878.5 563.5L900 563L900 601L878.5 601C857 601 814 601 771.2 601C728.3 601 685.7 601 642.8 601C600 601 557 601 514.2 601C471.3 601 428.7 601 385.8 601C343 601 300 601 257.2 601C214.3 601 171.7 601 128.8 601C86 601 43 601 21.5 601L0 601Z" fill="#c62368"></path></svg>