<svg id="visual" viewBox="0 0 900 600" width="900" height="600" xmlns="http://www.w3.org/2000/svg" xmlns:xlink="http://www.w3.org/1999/xlink" version="1.1"><rect x="0" y="0" width="900" height="600" fill="#F3dfbf"></rect><path d="M0 152L21.5 166C43 180 86 208 128.8 214.3C171.7 220.7 214.3 205.3 257.2 203.5C300 201.7 343 213.3 385.8 208.7C428.7 204 471.3 183 514.2 184.3C557 185.7 600 209.3 642.8 214.8C685.7 220.3 728.3 207.7 771.2 206.2C814 204.7 857 214.3 878.5 219.2L900 224L900 0L878.5 0C857 0 814 0 771.2 0C728.3 0 685.7 0 642.8 0C600 0 557 0 514.2 0C471.3 0 428.7 0 385.8 0C343 0 300 0 257.2 0C214.3 0 171.7 0 128.8 0C86 0 43 0 21.5 0L0 0Z" fill="#eb8a90"></path><path d="M0 138L21.5 148.3C43 158.7 86 179.3 128.8 188.7C171.7 198 214.3 196 257.2 192.5C300 189 343 184 385.8 171.5C428.7 159 471.3 139 514.2 138.3C557 137.7 600 156.3 642.8 159.5C685.7 162.7 728.3 150.3 771.2 151.8C814 153.3 857 168.7 878.5 176.3L900 184L900 0L878.5 0C857 0 814 0 771.2 0C728.3 0 685.7 0 642.8 0C600 0 557 0 514.2 0C471.3 0 428.7 0 385.8 0C343 0 300 0 257.2 0C214.3 0 171.7 0 128.8 0C86 0 43 0 21.5 0L0 0Z" fill="#e37483"></path><path d="M0 131L21.5 132.7C43 134.3 86 137.7 128.8 131.7C171.7 125.7 214.3 110.3 257.2 113.2C300 116 343 137 385.8 142.8C428.7 148.7 471.3 139.3 514.2 137.2C557 135 600 140 642.8 135.3C685.7 130.7 728.3 116.3 771.2 115.2C814 114 857 126 878.5 132L900 138L900 0L878.5 0C857 0 814 0 771.2 0C728.3 0 685.7 0 642.8 0C600 0 557 0 514.2 0C471.3 0 428.7 0 385.8 0C343 0 300 0 257.2 0C214.3 0 171.7 0 128.8 0C86 0 43 0 21.5 0L0 0Z" fill="#da5d78"></path><path d="M0 107L21.5 104.2C43 101.3 86 95.7 128.8 93.5C171.7 91.3 214.3 92.7 257.2 95.7C300 98.7 343 103.3 385.8 103C428.7 102.7 471.3 97.3 514.2 91.3C557 85.3 600 78.7 642.8 72.5C685.7 66.3 728.3 60.7 771.2 63.8C814 67 857 79 878.5 85L900 91L900 0L878.5 0C857 0 814 0 771.2 0C728.3 0 685.7 0 642.8 0C600 0 557 0 514.2 0C471.3 0 428.7 0 385.8 0C343 0 300 0 257.2 0C214.3 0 171.7 0 128.8 0C86 0 43 0 21.5 0L0 0Z" fill="#d1446f"></path><path d="M0 55L21.5 57C43 59 86 63 128.8 58.2C171.7 53.3 214.3 39.7 257.2 35.5C300 31.3 343 36.7 385.8 44.2C428.7 51.7 471.3 61.3 514.2 61.7C557 62 600 53 642.8 52.3C685.7 51.7 728.3 59.3 771.2 59.3C814 59.3 857 51.7 878.5 47.8L900 44L900 0L878.5 0C857 0 814 0 771.2 0C728.3 0 685.7 0 642.8 0C600 0 557 0 514.2 0C471.3 0 428.7 0 385.8 0C343 0 300 0 257.2 0C214.3 0 171.7 0 128.8 0C86 0 43 0 21.5 0L0 0Z" fill="#c62368"></path></svg>