<svg id="visual" viewBox="0 0 900 600" width="900" height="600" xmlns="http://www.w3.org/2000/svg" xmlns:xlink="http://www.w3.org/1999/xlink" version="1.1"><path d="M0 163L13.7 157C27.3 151 54.7 139 82 144C109.3 149 136.7 171 163.8 174C191 177 218 161 245.2 153C272.3 145 299.7 145 327 135C354.3 125 381.7 105 409 102C436.3 99 463.7 113 491 137C518.3 161 545.7 195 573 191C600.3 187 627.7 145 654.8 142C682 139 709 175 736.2 185C763.3 195 790.7 179 818 169C845.3 159 872.7 155 886.3 153L900 151L900 0L886.3 0C872.7 0 845.3 0 818 0C790.7 0 763.3 0 736.2 0C709 0 682 0 654.8 0C627.7 0 600.3 0 573 0C545.7 0 518.3 0 491 0C463.7 0 436.3 0 409 0C381.7 0 354.3 0 327 0C299.7 0 272.3 0 245.2 0C218 0 191 0 163.8 0C136.7 0 109.3 0 82 0C54.7 0 27.3 0 13.7 0L0 0Z" fill="#d1446f"></path><path d="M0 301L13.7 294C27.3 287 54.7 273 82 280C109.3 287 136.7 315 163.8 320C191 325 218 307 245.2 284C272.3 261 299.7 233 327 220C354.3 207 381.7 209 409 210C436.3 211 463.7 211 491 230C518.3 249 545.7 287 573 291C600.3 295 627.7 265 654.8 265C682 265 709 295 736.2 302C763.3 309 790.7 293 818 277C845.3 261 872.7 245 886.3 237L900 229L900 149L886.3 151C872.7 153 845.3 157 818 167C790.7 177 763.3 193 736.2 183C709 173 682 137 654.8 140C627.7 143 600.3 185 573 189C545.7 193 518.3 159 491 135C463.7 111 436.3 97 409 100C381.7 103 354.3 123 327 133C299.7 143 272.3 143 245.2 151C218 159 191 175 163.8 172C136.7 169 109.3 147 82 142C54.7 137 27.3 149 13.7 155L0 161Z" fill="#eaaa87"></path><path d="M0 415L13.7 417C27.3 419 54.7 423 82 435C109.3 447 136.7 467 163.8 466C191 465 218 443 245.2 433C272.3 423 299.7 425 327 428C354.3 431 381.7 435 409 430C436.3 425 463.7 411 491 408C518.3 405 545.7 413 573 423C600.3 433 627.7 445 654.8 442C682 439 709 421 736.2 416C763.3 411 790.7 419 818 420C845.3 421 872.7 415 886.3 412L900 409L900 227L886.3 235C872.7 243 845.3 259 818 275C790.7 291 763.3 307 736.2 300C709 293 682 263 654.8 263C627.7 263 600.3 293 573 289C545.7 285 518.3 247 491 228C463.7 209 436.3 209 409 208C381.7 207 354.3 205 327 218C299.7 231 272.3 259 245.2 282C218 305 191 323 163.8 318C136.7 313 109.3 285 82 278C54.7 271 27.3 285 13.7 292L0 299Z" fill="#f3dfbf"></path><path d="M0 487L13.7 489C27.3 491 54.7 495 82 507C109.3 519 136.7 539 163.8 537C191 535 218 511 245.2 496C272.3 481 299.7 475 327 483C354.3 491 381.7 513 409 517C436.3 521 463.7 507 491 502C518.3 497 545.7 501 573 508C600.3 515 627.7 525 654.8 523C682 521 709 507 736.2 497C763.3 487 790.7 481 818 481C845.3 481 872.7 487 886.3 490L900 493L900 407L886.3 410C872.7 413 845.3 419 818 418C790.7 417 763.3 409 736.2 414C709 419 682 437 654.8 440C627.7 443 600.3 431 573 421C545.7 411 518.3 403 491 406C463.7 409 436.3 423 409 428C381.7 433 354.3 429 327 426C299.7 423 272.3 421 245.2 431C218 441 191 463 163.8 464C136.7 465 109.3 445 82 433C54.7 421 27.3 417 13.7 415L0 413Z" fill="#eaaa87"></path><path d="M0 601L13.7 601C27.3 601 54.7 601 82 601C109.3 601 136.7 601 163.8 601C191 601 218 601 245.2 601C272.3 601 299.7 601 327 601C354.3 601 381.7 601 409 601C436.3 601 463.7 601 491 601C518.3 601 545.7 601 573 601C600.3 601 627.7 601 654.8 601C682 601 709 601 736.2 601C763.3 601 790.7 601 818 601C845.3 601 872.7 601 886.3 601L900 601L900 491L886.3 488C872.7 485 845.3 479 818 479C790.7 479 763.3 485 736.2 495C709 505 682 519 654.8 521C627.7 523 600.3 513 573 506C545.7 499 518.3 495 491 500C463.7 505 436.3 519 409 515C381.7 511 354.3 489 327 481C299.7 473 272.3 479 245.2 494C218 509 191 533 163.8 535C136.7 537 109.3 517 82 505C54.7 493 27.3 489 13.7 487L0 485Z" fill="#d1446f"></path></svg>